<?xml version="1.0" encoding="UTF-8"?>
<svg id="Layer_2" data-name="Layer 2" xmlns="http://www.w3.org/2000/svg" xmlns:xlink="http://www.w3.org/1999/xlink" viewBox="0 0 1422.06 1256.03">
  <defs>
    <style>
      .cls-1, .cls-2 {
        fill: none;
      }

      .cls-2, .cls-3 {
        stroke: #0d2440;
        stroke-linecap: round;
        stroke-miterlimit: 10;
        stroke-width: 4px;
      }

      .cls-4 {
        fill: #f9f0ee;
      }

      .cls-3 {
        fill: #2f65b0;
      }

      .cls-5 {
        clip-path: url(#clippath-1);
      }

      .cls-6 {
        fill: #0c233f;
      }

      .cls-7 {
        fill: #0d2440;
      }

      .cls-8 {
        fill: #dcd2d1;
      }

      .cls-9 {
        fill: #0a2240;
      }

      .cls-10 {
        fill: #a6c4e7;
      }
    </style>
    <clipPath id="clippath-1">
      <path class="cls-1" d="M206.9,649.39c-14.25-260.88,206.79-495.23,473.11-511.54,134.07-7.73,259.38,43.02,355.26,127.28,95.52,84.46,161.62,202.44,169.07,333.82,14.47,261.16-206.26,495.39-472.82,511.44-134.17,7.61-259.63-43.2-355.58-127.43-95.6-84.44-161.69-202.29-169.04-333.56Z"/>
    </clipPath>
  </defs>
  <g id="Layer_6" data-name="Layer 6">
    <g>
      <path class="cls-4" d="M206.9,649.39c-14.25-260.88,206.79-495.23,473.11-511.54,134.07-7.73,259.38,43.02,355.26,127.28,95.52,84.46,161.62,202.44,169.07,333.82,14.47,261.16-206.26,495.39-472.82,511.44-134.17,7.61-259.63-43.2-355.58-127.43-95.6-84.44-161.69-202.29-169.04-333.56Z"/>
      <path class="cls-8" d="M699.87,135.09c-143.65,5.49-269.27,69.92-358.69,164-89.16,94.39-142.12,218.43-134.28,350.3,7.71,139.15,79.15,258.32,179.67,341.43,100.92,82.92,230.92,129.78,365.04,120.04-.3.28-93.55-30.15-190.49-105.37-96.47-75.06-196.63-194.93-199.95-369.77-2.64-174.88,84.58-300.66,169.63-382.13,85.51-81.55,168.85-118.79,169.06-118.52Z"/>
      <path class="cls-6" d="M818.93,406.21c-83.11,3.99-166.27,8.36-249.48,13.05-38.21,72.76-76.54,145.41-114.46,217.72,45.63,68.06,91.6,136.48,137.34,204.98,83.14-3.97,166.33-8.31,249.55-12.96,38.18-72.76,76.48-145.41,114.36-217.75-45.65-68.1-91.62-136.55-137.32-205.05Z"/>
      <g id="Sporting_KC_-_Two_Color_-_Dark_Indigo_Sporting_Blue" data-name="Sporting KC - Two Color - Dark Indigo &amp;amp; Sporting Blue">
        <g>
          <g>
            <g>
              <path class="cls-7" d="M844.67,646.14c-14.77,48.24-42.2,81.09-73.61,106.17-3.6,2.88-7.11,5.59-10.48,8.13,0,0-.01,0-.02.01-13.85,10.43-25.58,18.04-33.56,22.9,0,0,0,0,0,0,0,0-9.06,4.98-9.56,5.23-.89.44-1.77.87-2.66,1.31-.93-.34-1.85-.68-2.78-1.03-.56-.21-4.75-1.78-11.39-4.82,0,0-.02,0-.03-.01-8.14-3.9-19.6-9.79-33.15-17.87-4.06-2.42-8.31-5.04-12.71-7.86-33.92-21.71-64.74-51.58-84.68-98.04-22.72-52.87-13.05-114.51.57-152.45.02-.05.14-.21.18-.23,36.66-23.28,79.92-37.45,126.49-39.88,0,0,0,0,0,0,.03,0,.06,0,.09,0,0,0,0,0,0,0,46.6-2.43,91.31,7.52,130.25,26.93.04.02.12.08.12.1,17.63,36.36,33.79,96.45,16.94,151.4Z"/>
              <path class="cls-10" d="M711.63,782.11c-1.99-.73-49.22-18.48-90.03-57.76-38.1-36.7-77.09-99.28-45.57-189.95.23-.65.46-1.31.68-1.96.57-.41,1.14-.83,1.71-1.24,2-1.43,49.63-35.46,120.23-39.14,70.6-3.66,121.58,25.3,123.73,26.52.61.35,1.22.7,1.83,1.06.3.63.59,1.25.89,1.88,41.15,87.01,9.24,153.21-24.71,193.61-36.36,43.24-81.42,65.77-83.32,66.7-.89.44-1.77.87-2.66,1.31-.93-.34-1.85-.68-2.78-1.03Z"/>
              <path class="cls-7" d="M819.06,524.59c-.04-.07-.18-.27-.33-.35-3.67-2.04-52.98-28.93-119.72-25.47-66.97,3.49-113.24,35.5-116.39,37.71-.11.08-.22.26-.25.33-58.41,169.01,131.86,239.26,131.65,239.23-.2-.01,181.45-89.29,105.04-251.45h0Z"/>
            </g>
            <g>
              <path class="cls-10" d="M760.38,601.54c-.56.2-.13.76.18,1.09.54.56,3.84,4.11,4.37,4.57.45.4.54.74,1.36.6.86-.29,1.69-.55,2.48-.75,1.29-.28,2.63-.49,3.98-.63.28-.02.52-.04.73-.05,4.33-.34,7.48.15,7.53.16,9.12,1.01,10.35,8.29,10.4,8.57,0,.08.01.15.02.23.16,1.67.47,5.15-3.15,8.19-.16.12-.21.33-.14.51.06.18.23.31.43.31,1.46.07,2.97.07,4.49,0,.41-.02.82-.05,1.25-.08,3.55-.27,6.23-1.22,7.94-2.83,1.76-1.63,2.52-3.95,2.29-6.84,0-.11-.6-10.59-16.38-14.61-4.81-1.23-9.84-1.28-13.21-1.11-2.65.14-4.39.41-4.43.42-.09,0-2.33.24-5.74,1.06-1.62.37-2.85.72-4.39,1.2"/>
              <path class="cls-10" d="M808.58,668.44c-.18-.12-.41-.13-.58,0-4.71,3.48-10.44,5.42-17.05,5.76-3.92.2-7.96-.17-12.02-1.09-.96-.21-1.73-.43-2.47-.67-1.22-.37-2.37-.8-3.51-1.29-2.14-.91-4.25-2.06-6.27-3.4-.77-.52-1.51-1.05-2.22-1.59-8.5-6.55-12.16-14.8-12.21-14.9-2.5-5.26-4.11-9.79-4.38-16.1-.1-2.39.09-4.8.53-7.18,0,0,0-.01,0-.02.03-.16.1-.78.1-.78.07-.33-.1-.56-.32-.77-.53-.51-8.14-8.64-8.61-9.05-.4-.35-.7-1-1.22-.84-1.67,2.45-2.69,4.67-3.38,6.34-.14.33-.28.67-.4,1-.07.18-.14.34-.2.51,0,.03-.01.06-.02.09-1.8,5.04-2.47,10.72-1.97,16.89,0,.17,1.67,17.44,15.31,28.59,3.67,3,7.68,5.48,11.91,7.36.82.36,1.62.68,2.42.99,3.3,1.27,6.75,2.19,10.25,2.74,1.04.16,2,.28,2.84.35,2.25.22,4.44.27,6.52.16,1.83-.09,2.86-.28,2.86-.28,16-1.4,22.77-8.38,24.24-12.28.08-.2,0-.42-.16-.54"/>
              <path class="cls-10" d="M781.19,663.82h0s0,0,0,0ZM742.94,610.41c3.67,3.99,7.34,7.97,11.02,11.96.01.01.07.08.09.09.04.05.08.1.13.14.51.55,1.03,1.1,1.52,1.64.08.11.17.21.25.32,8.48,10.66,13.03,20.88,13.54,30.38.04.8.05,1.61.05,2.4,0,.21-.01.42-.02.63-.02.58-.05,1.15-.09,1.72,0,.04,0,.08,0,.13-.02.25-.04.5-.07.77-.03.37-.08.74-.12,1.11-.18,1.37-.51,2.81-.91,4.35-.11.38.38.58.74.79.62.36,5.28,2.72,10,3.99.4.1.53.09.63-.16.84-2.25,1.48-4.43,1.95-6.63.02-.06.03-.12.03-.18,1.07-4.76,1.47-9.62,1.21-14.47-.44-8.25-2.7-16.14-6.71-23.43-2.04-3.76-4.88-7.86-8.43-12.18-.53-.65-1.08-1.3-1.64-1.97-.15-.17-.3-.34-.46-.52-.14-.16-.28-.33-.43-.49-.56-.64-1.15-1.3-1.75-1.95-.3-.36-.62-.69-.94-1.05-.44-.44-.87-.89-1.3-1.35-.3-.32-.61-.64-.91-.96-.55-.56-1.09-1.12-1.63-1.69-.77-.8-1.54-1.61-2.31-2.41-3.3-3.44-6.6-6.89-9.83-10.34-9.23-10.26-14.19-18.05-14.74-23.15-.33-2.94.57-5.28,2.76-7.16,2.35-2.01,4.77-2.91,8.38-3.09,2.22-.11,4.8.96,6.57,2.72,1.7,1.86,2.57,3.58,2.67,5.25,0,.08.02.16.02.24.1,1.68.32,5.17-3.38,8.11-.15.12-.21.32-.15.5.06.18.22.31.42.33,1.86.13,3.79.15,5.74.05,7.19-.37,10.71-3.55,10.48-9.44-.09-2.88-1.32-7.05-6.76-10.55-4.17-2.68-9.43-4.27-14.09-4.26-6.97.02-13.35,2.08-19.06,6.14-5.32,3.79-7.94,9.24-7.59,15.72.38,7.07,4.99,15.65,13.71,25.51,3.82,4.13,7.63,8.28,11.44,12.42"/>
              <path class="cls-10" d="M760.64,684.89c-.79-.3-.98-.27-1.42.38-.73,1.05-1.51,2.12-2.31,3.18-7.74,9.91-17.91,18.54-30.22,25.66-.21.12-.29.36-.21.58.08.19.27.31.47.3.02,0,.05,0,.08,0,14.12-2.96,26.24-9.39,36.08-19.15.04-.03.08-.07.15-.16.05-.05.09-.09.14-.14,1.34-1.35,2.54-2.64,3.64-3.91.7-.71,1.7-2.05,3.05-3.89.15-.2,0-.39-.21-.42-4.92-.61-8.49-2.13-9.24-2.41"/>
              <path class="cls-9" d="M748.41,627.98s0-.02,0-.02c0,.01,0,.01,0,.02"/>
              <path class="cls-10" d="M611.08,530.92c-6.1,3.02-11.98,6.16-17.81,9.77-1.14.71-2.04,1.9-2.32,3.03-.41,1.7-.93,3.7-1.33,5.4-.22.89-.06,1.23.87.89,4.75-1.63,9.68-3.09,14.79-4.35-.17.91-.44,2.37-.61,3.27-4.12,2.12-8.27,4.6-12.27,6.98.24-1.08.48-2.01.72-3.09-1.72,1.03-3.47,2.2-5.17,3.27-.39,1.63-.73,3.14-1.12,4.77-.27,1.13.33,1.35,1.54.6,6.15-3.82,12.58-7.6,19.02-10.79,1.27-.63,2.22-1.71,2.41-2.8.32-1.76.63-3.76.95-5.52.15-.84-.11-1.21-1.06-1-5.14,1.16-10.11,2.5-14.88,4.03.18-.8.56-2.23.74-3.02,3.7-2.25,7.54-4.33,11.63-6.43-.17.9-.34,1.81-.52,2.72,1.74-.9,3.49-1.77,5.25-2.62.26-1.44.52-2.87.77-4.3.19-1.06-.43-1.38-1.6-.8"/>
              <path class="cls-10" d="M640.54,518.97c-6.99,2.34-13.86,4.92-20.6,7.99-1.03,6.33-2.14,13.03-3.18,19.36,1.83-.84,3.67-1.65,5.52-2.43.76-5.11,1.58-10.66,2.33-15.76,4.03-1.71,8.09-3.24,12.2-4.69-.22,1.94-.49,4.26-.7,6.2-3.88,1.37-7.72,2.85-11.52,4.44,1.3.53,2.62,1.06,3.97,1.61,3.51-1.38,7.06-2.67,10.64-3.86,1.3-.44,2.17-1.37,2.26-2.44.29-3.04.62-6.31.9-9.34.1-1.06-.58-1.5-1.83-1.09"/>
              <path class="cls-10" d="M668.31,526.96c-5.1.97-10.14,2.08-15.16,3.39.28-3.78.59-8.1.87-11.93,4.66-1.21,9.8-2.34,14.77-3.28-.16,3.81-.34,8.07-.49,11.82M672.5,511.23c-7.34,1.27-14.58,2.81-21.75,4.82-1.28.36-2.11,1.27-2.2,2.34-.43,4.99-.88,10.18-1.3,15.08-.09,1.03.65,1.46,1.99,1.09,7.47-2.08,15.05-3.78,22.7-5.1,1.35-.23,2.21-1.02,2.25-2.05.13-4.85.25-9.87.39-14.81.03-1.06-.77-1.6-2.07-1.38"/>
              <path class="cls-10" d="M705.1,519.85c1.33-.04,2.16-.68,2.08-1.68-.21-2.75-.42-5.64-.63-8.42-.08-1.05-.98-1.7-2.27-1.66-7.49.23-14.93.81-22.28,1.81.08,6.02.17,12.09.25,17.99,1.94-.25,3.89-.48,5.84-.67-.13-4.8-.29-9.89-.42-14.76,4.4-.48,8.83-.78,13.28-.98.11,1.75.22,3.59.33,5.32-4.26.19-8.49.46-12.71.9,1.03.61,10.95,6.29,14.93,8.53,2.41-.09,4.83-.13,7.25-.13,0-.06,0-.1-.01-.16-3.61-2.03-6.67-4.02-10.14-5.91,1.71-.09,2.79-.12,4.5-.17"/>
              <path class="cls-10" d="M711.54,511.25c3.39,0,6.78.09,10.18.26.63,4.89,1.29,10.11,1.9,14.87,1.94.1,3.89.23,5.83.37-.67-4.77-1.37-9.99-2.06-14.89,3.41.26,6.82.61,10.22,1.03-.19-1.18-.31-2.1-.5-3.29-8.63-1.07-17.33-1.62-25.93-1.61.13,1.18.22,2.08.36,3.25"/>
              <path class="cls-10" d="M745.24,528.27c1.99.28,3.97.58,5.95.91-1.12-6-2.28-12.24-3.41-18.24-1.86-.31-3.74-.59-5.62-.85,1.02,5.98,2.06,12.2,3.07,18.18"/>
              <path class="cls-10" d="M778.02,529.75c-5.83-5.39-11.71-11.16-17.43-16.32-1.87-.41-3.81-.82-5.7-1.19,1.33,6.13,2.67,12.45,3.95,18.38,1.97.36,3.93.8,5.89,1.21-.92-4.06-1.91-8.57-2.85-12.72,5.78,5.2,11.83,11.12,17.73,16.55,1.86.53,3.57,1.09,5.56,1.73-1.55-5.89-3.29-12.48-4.88-18.59-1.82-.59-3.64-1.15-5.48-1.7,1.04,4.09,2.22,8.65,3.23,12.65"/>
              <path class="cls-10" d="M816.7,548.52c-1.02-3.01-2.32-6.92-2.91-8.67-4.98-2.41-6.81-3.27-12.62-5.77,1.06,1.31,2.12,2.62,3.19,3.93,2.63,1.15,3.1,1.37,5.22,2.36.55,1.48,1.18,3.36,1.59,4.51-4.84-2.34-8.24-3.73-13.09-5.7-1.51-4.66-2.75-8.78-3.96-12.7,4.95,1.94,8.18,3.31,12.64,5.34.29.94.66,2.09.66,2.09,1.73.84,3.47,1.68,5.2,2.53,0,0-.85-2.47-1.36-3.88-.43-1.21-1.18-2.12-2.45-2.71-6.53-3.03-11.11-5.03-19.14-8.05-1.25-.47-1.9,0-1.57,1.09,1.52,5.07,3.12,10.75,4.62,15.8.32,1.07,1.33,1.87,2.65,2.36,6.92,2.58,12.62,5.02,19.48,8.3,1.62.77,2.38.74,1.84-.85"/>
              <path class="cls-10" d="M589.64,515.15c-1.48-.64-2.93-1.25-4.34-1.84-.41,1.64-.84,3.32-1.27,5.05-.97.57-1.93,1.15-2.91,1.74,1.16-4.26,2.26-8.24,3.29-11.98.85-.47,1.7-.94,2.55-1.39-.35,1.39-1.07,4.24-1.07,4.25,1.98-2.3,3.95-4.6,5.93-6.9,0,0,2.32-1.1,3.33-1.59,0,.03.42-.2.42-.17-2.07,2.44-5.39,6.28-7.68,9.04,1.76.73,2.97,1.26,4.84,2.06,0,.03,0,.06-.02.09-1.18.63-1.87.97-3.08,1.64"/>
              <path class="cls-10" d="M609.72,497.8c-1,1.82-2.02,3.66-3.05,5.53,1.47-.66,2.93-1.3,4.39-1.93-.46-1.2-.91-2.41-1.34-3.6M612.18,504.36c-.18-.5-.37-1-.55-1.49-2.07.88-4.15,1.79-6.24,2.75-.43.78-.87,1.56-1.31,2.34-.92.43-1.84.87-2.77,1.32,0,0,0-.02,0-.03,2.58-4.46,5.07-8.8,7.47-13,.89-.39,1.78-.77,2.67-1.15.99,2.71,2.02,5.47,3.11,8.25,0,0,0,.02,0,.03-.79.32-1.58.65-2.39.99"/>
              <path class="cls-10" d="M635.77,495.87c-2.02-1.57-3.99-3.1-5.93-4.61-.32,2.27-.64,4.55-.96,6.85-.9.31-1.81.63-2.72.95.51-3.38,1.01-6.71,1.5-10,.86-.29,1.71-.58,2.57-.85,1.92,1.44,3.87,2.9,5.87,4.4.24-2.17.49-4.32.73-6.45.86-.26,1.71-.5,2.57-.74-.33,3.18-.66,6.39-.99,9.65-.88.26-1.75.52-2.63.8"/>
              <path class="cls-10" d="M662.7,489.22c-3.17.6-6.35,1.27-9.54,2-.63.15-1.01-.1-.97-.64.05-.77.1-1.55.15-2.33.89-.21,1.79-.41,2.68-.61-.03.51-.06,1.04-.09,1.55,2.06-.46,4.12-.89,6.17-1.29.02-.44.04-.88.06-1.32-2.68-.22-5.34-.39-8-.52-.53-.01-.66-.22-.63-.65.06-.81.11-1.62.16-2.42.04-.54.45-.97,1.07-1.11,3.11-.7,6.22-1.34,9.33-1.9.6-.11.96.15.94.67-.03.7-.05,1.4-.08,2.09-.88.16-1.76.32-2.64.49.02-.44.04-.88.06-1.32-2.02.38-4.05.8-6.07,1.24-.02.38-.05.76-.07,1.14,2.65.15,5.3.34,7.97.58.49.04.66.27.65.68-.03.86-.06,1.72-.1,2.59-.02.53-.43.94-1.06,1.06"/>
              <path class="cls-10" d="M684.09,478.83c-.73,1.4-1.47,2.81-2.21,4.23,1.52-.19,3.05-.36,4.57-.51-.8-1.24-1.58-2.48-2.36-3.72M688.38,485.58c-.32-.51-.64-1.02-.96-1.52-2.16.2-4.31.45-6.46.72-.31.58-.63,1.16-.94,1.73-.94.12-1.88.25-2.82.38,0,0,0-.02,0-.02,1.85-3.28,3.67-6.54,5.44-9.76.94-.11,1.88-.22,2.82-.32,1.88,2.82,3.81,5.66,5.76,8.52,0,0,0,.02,0,.02-.95.08-1.91.16-2.86.25"/>
              <path class="cls-10" d="M716.54,484.6c-3.26-.07-6.53-.06-9.81.01-.64,0-1.09-.31-1.13-.84-.06-.75-.12-1.51-.18-2.26.92-.03,1.84-.04,2.76-.05.04.51.09,1,.13,1.51,2.12-.03,4.24-.03,6.34,0-.05-.43-.09-.86-.14-1.29-2.86-.77-5.72-1.48-8.56-2.15-.56-.12-.73-.35-.76-.76-.06-.78-.13-1.56-.19-2.34-.04-.52.34-.86.96-.87,3.2-.05,6.39-.04,9.56.04.61.01,1.03.34,1.09.84.08.68.16,1.36.24,2.04-.9-.02-1.81-.04-2.71-.05-.05-.43-.09-.86-.14-1.28-2.07-.04-4.14-.04-6.22-.02.03.37.06.74.1,1.11,2.83.69,5.67,1.42,8.52,2.2.53.14.74.41.79.81.1.84.2,1.68.3,2.53.06.52-.31.84-.96.83"/>
              <path class="cls-10" d="M754.17,488.17c-3.47-.6-6.91-1.11-10.33-1.55-.63-.08-1.05-.46-1.15-.99-.44-2.49-.87-4.99-1.31-7.51-.1-.54.21-.84.82-.77,3.37.39,6.76.86,10.18,1.41.63.1,1.1.51,1.21,1.06.17.87.33,1.73.49,2.59-.91-.16-1.82-.31-2.73-.45-.11-.57-.21-1.13-.32-1.7-2.3-.36-4.58-.68-6.85-.96.35,1.94.69,3.88,1.03,5.82,2.29.3,4.6.64,6.92,1.02-.11-.59-.22-1.19-.34-1.79.91.15,1.82.3,2.74.46.17.89.34,1.78.51,2.67.1.54-.24.8-.88.7"/>
              <path class="cls-10" d="M768.56,490.95c-.83-3.25-1.65-6.46-2.48-9.64.89.2,1.77.41,2.66.62.85,3.2,1.72,6.42,2.59,9.69-.92-.23-1.85-.46-2.77-.68"/>
              <path class="cls-10" d="M787.98,488.66c.85,2.73,1.71,5.53,2.59,8.38-.94-.35-1.87-.68-2.8-1.01-.82-2.78-1.62-5.51-2.41-8.18-1.52-.45-3.02-.88-4.48-1.28-.17-.6-.33-1.21-.49-1.8,3.74.98,7.7,2.12,11.89,3.48.23.67.45,1.34.68,2.02-1.7-.57-3.36-1.11-4.98-1.61"/>
              <path class="cls-10" d="M812.18,501.55c.45,1.22,1.09,3.13,1.54,4.35-.96-.45-1.91-.89-2.85-1.32-.43-1.2-.85-2.61-1.28-3.8-2.61-2.99-5.34-6.35-7.78-9.12-.01-.03-.01-.05-.02-.08.89.33,2.93,1.09,3.84,1.44,1.83,2.13,3.63,4.43,4.83,5.71.99-1.16,2.19-2.87,2.19-2.87,0,0,1.61.73,2.65,1.18.01.03.02.06.03.09-1.05,1.49-2.1,2.96-3.17,4.41"/>
              <path class="cls-10" d="M706.68,643.51c-.41-7.59-.82-15.18-1.23-22.76-43.07,4.19-81.69,19.93-111.41,43.09,3.04,6.11,6.57,12.09,10.54,17.95,27.56-20.17,62.83-34.03,102.1-38.28"/>
              <path class="cls-10" d="M578.88,607.16c23.03-16.87,50.19-29.71,80.06-37.1-6.9-7.18-13.42-13.78-19.63-19.87-20.9,6.66-40.34,16.04-57.85,27.61-2.07,10.79-2.96,20.08-2.58,29.36"/>
              <path class="cls-10" d="M672.26,584.12c-34.51,7.16-65.62,21.69-91.08,41.41,1.07,5.23,2.48,10.74,4.27,16.75.56,1.88,1.18,3.74,1.83,5.6,28.24-21.95,64.08-37.4,104.09-43.02-6.68-7.34-13.04-14.25-19.11-20.74"/>
              <path class="cls-10" d="M712.15,744.33c-10.09,1.75-19.77,4.15-28.94,7.12,13.74,7.87,24.9,12.8,30.13,14.97-.4-7.36-.8-14.72-1.19-22.08Z"/>
              <path class="cls-10" d="M708.87,683.74c-.4-7.31-.79-14.62-1.19-21.93-35.28,4.31-67.11,16.52-92.46,34.07,4.31,5.18,8.99,10.23,14.01,15.18,22.48-13.68,49.7-23.35,79.64-27.32"/>
              <path class="cls-10" d="M711.05,724.08c-.38-7.03-.76-14.06-1.14-21.1-24.39,3.61-46.83,11.05-66.06,21.33,6.06,5.03,12.15,9.6,18.11,13.73,14.88-6.39,31.43-11.18,49.1-13.96"/>
            </g>
          </g>
          <path class="cls-10" d="M851,562.94c-1.85-11.83-4.7-23.91-8.36-35.66-3.66-11.75-8.14-23.18-13.25-33.71-.18-.37-.52-.58-.68-.66-40.01-19.95-84.98-29.39-130.22-27.25,0,0,0,0,0,0-.51.03-1.02.05-1.53.08-23.1,1.22-45.76,5.33-67.38,12.22-21.27,6.77-41.48,16.21-60.06,28.01-.34.21-.61.62-.69.83,0,.01,0,.02-.01.04-7.91,22.03-12.9,47.35-14.05,71.29-1.47,30.64,3.08,58.45,13.5,82.71,9.57,22.31,21.84,41.58,37.48,58.9,13.51,14.96,29.23,28.09,48.05,40.13,4.24,2.72,8.55,5.38,12.81,7.91,14.12,8.42,25.94,14.43,33.38,18,.03.01.05.02.07.03,6.49,2.97,10.74,4.58,11.53,4.88,1.1.41,2.2.81,3.3,1.22,1.05-.52,2.1-1.04,3.15-1.55.51-.25,8.72-4.77,9.63-5.27.07-.03.13-.07.2-.1,0-.01.02-.02.03-.03,7.57-4.61,19.51-12.33,33.66-22.98,0,0,.02-.01.03-.02,3.52-2.65,7.07-5.41,10.56-8.19,17.43-13.91,31.65-28.58,43.47-44.84,13.68-18.82,23.8-39.24,30.89-62.41,7.73-25.23,9.25-53.33,4.52-83.57ZM813.58,707.52c-11.69,16.08-25.76,30.59-43.01,44.36-3.47,2.77-7,5.51-10.48,8.13-.01.01-.03.02-.04.03-14.16,10.66-26.08,18.35-33.6,22.93-3.64,2-9.15,5.03-9.53,5.22-.73.36-1.46.72-2.19,1.08-.76-.28-1.52-.56-2.28-.84-.77-.29-4.93-1.86-11.34-4.79,0,0,0,0-.01,0-.01,0-.02-.01-.03-.01-7.39-3.55-19.15-9.52-33.19-17.89-4.23-2.52-8.52-5.17-12.74-7.87-18.64-11.93-34.19-24.91-47.55-39.71-15.46-17.12-27.59-36.17-37.06-58.24-10.27-23.93-14.76-51.4-13.31-81.68,1.13-23.63,6.05-48.61,13.82-70.37,18.36-11.63,38.31-20.93,59.28-27.61,21.48-6.84,44-10.92,66.95-12.11.03,0,.06,0,.1,0,45.13-2.35,90.02,6.94,129.94,26.78,10.04,20.79,17.59,45.06,21.24,68.38,1.17,7.46,1.95,14.79,2.35,21.98,1.2,21.59-1.07,41.87-6.8,60.54-7.02,22.91-17.01,43.1-30.53,61.7Z"/>
        </g>
      </g>
      <g class="cls-5">
        <path class="cls-6" d="M1339.23,423.81c-68.01,2-136.06,4.3-204.14,6.87-29.93,58.28-60.54,116.96-91.53,175.95,37.42,55.56,74.55,110.8,111.08,165.56,68.31-4.17,136.64-8.45,204.99-12.8,32.07-58,63.59-115.46,94.28-172.28-37.69-53.78-76.02-108.26-114.68-163.3Z"/>
        <path class="cls-6" d="M267.53,475.13c-68.3,4.21-136.61,8.54-204.95,12.96-32.13,58.03-63.72,115.52-94.49,172.37,37.62,53.74,75.89,108.19,114.5,163.2,68.04-2.06,136.12-4.41,204.22-7.02,29.99-58.29,60.64-117,91.66-175.99-37.39-55.54-74.48-110.77-110.95-165.5Z"/>
        <path class="cls-6" d="M508.99,2.19c-65.81,4.93-131.7,10.51-197.69,16.73-32.94,59.97-66.13,119.72-99.26,179.13,34.12,53.57,69.27,107.78,105.13,162.47,67.99-4.63,135.93-9.01,203.84-13.1,31.47-59.62,62.83-119.34,93.78-179.05-36.04-55.7-71.42-111.15-105.8-166.19Z"/>
        <path class="cls-6" d="M1034.54-22.41c-65.31,1.13-130.71,3.01-196.21,5.62-28.76,59.03-58.37,118.33-88.54,177.76,36.73,56.1,74.01,112.32,111.53,168.49,67.77-3.04,135.49-5.73,203.17-8.04,29.46-58.4,58.19-116.43,85.91-173.95-38.91-56.4-77.63-113.08-115.85-169.87Z"/>
        <path class="cls-6" d="M552.42,926.51c-67.77,3.01-135.49,5.67-203.16,7.96-29.43,58.36-58.12,116.34-85.79,173.81,38.96,56.39,77.73,113.06,116.01,169.87,65.31-1.07,130.71-2.89,196.2-5.44,28.69-59,58.25-118.26,88.38-177.67-36.78-56.12-74.09-112.35-111.63-168.52Z"/>
        <path class="cls-6" d="M1093.85,895.82c-67.98,4.6-135.93,8.95-203.83,13.01-31.43,59.63-62.74,119.34-93.63,179.03,36.1,55.74,71.54,111.24,106,166.34,65.8-4.85,131.69-10.37,197.67-16.52,32.86-59.98,65.98-119.75,99.05-179.19-34.17-53.65-69.37-107.93-105.26-162.67Z"/>
        <path class="cls-3" d="M861.31,329.46c-18.45,36.21-37.09,72.49-55.85,108.81"/>
        <path class="cls-3" d="M521.56,347.39c22.24,33.96,44.68,68.03,67.24,102.17"/>
        <path class="cls-3" d="M546.64,943.92c16.54-37.42,33.27-74.91,50.13-112.45"/>
        <path class="cls-3" d="M898.57,921.47c-20.47-34.57-41.13-69.24-61.93-103.98"/>
        <path class="cls-2" d="M342.18,643.51c40.96-2.05,81.93-4.13,122.89-6.22"/>
        <path class="cls-2" d="M1062.47,606.73c-40.96,2.04-81.93,4.11-122.89,6.19"/>
      </g>
    </g>
  </g>
</svg>