<?xml version="1.0" encoding="UTF-8"?>
<svg id="Layer_1" xmlns="http://www.w3.org/2000/svg" version="1.1" viewBox="0 0 1920 1153.9">
  <!-- Generator: Adobe Illustrator 30.3.0, SVG Export Plug-In . SVG Version: 2.1.3 Build 182)  -->
  <defs>
    <style>
      .st0 {
        fill: #ce1126;
      }

      .st0, .st1 {
        fill-rule: evenodd;
      }

      .st2 {
        fill: #007a3d;
      }

      .st3 {
        isolation: isolate;
      }

      .st4 {
        fill: #a5c5ed;
      }

      .st5 {
        fill: #fff;
      }

      .st1 {
        fill: #fafafa;
      }

      .st6 {
        fill: #0c2340;
      }

      .st7 {
        fill: #eee;
      }
    </style>
  </defs>
  <g>
    <rect width="1920" height="384.6"/>
    <rect class="st7" y="384.6" width="1920" height="384.6"/>
    <rect class="st2" y="769.3" width="1920" height="384.6"/>
    <polygon class="st0" points="0 1153.9 0 0 975.5 576.9 0 1153.9"/>
    <polygon class="st1" points="404.3 577 448.7 528.6 384.6 542.9 365 480.3 345.3 542.9 281.3 528.6 325.6 577 281.3 625.3 345.3 611 365 673.6 384.6 611 448.7 625.3 404.3 577"/>
  </g>
  <rect class="st6" x="-.3" y=".2" width="1920" height="1154"/>
  <g class="st3">
    <g class="st3">
      <path class="st5" d="M728.8,931.1V280.6h-42.5v-57.6h146.6v57.6h-42.5v650.5h-61.7,0Z"/>
      <path class="st5" d="M853.2,222.8h103.1c55.7,0,69.8,17.2,69.8,78.9v182.1c0,45.5-8.1,67.8-35.4,75.9,27.3,8.1,35.4,29.4,35.4,74.9v217.5c0,61.7-14.1,78.9-69.8,78.9h-103.1V222.8ZM964.5,309.9c0-21.2-2-28.4-20.2-28.4h-28.4v247.9h28.4c18.2,0,20.2-6.1,20.2-28.4v-191.3h0ZM916.1,588.1v284.2h28.4c18.2,0,20.2-7.1,20.2-28.4v-226.6c0-21.2-2-29.4-20.2-29.4h-28.4Z"/>
      <path class="st5" d="M1060.7,222.8h103.1c55.7,0,69.8,17.2,69.8,78.9v550.4c0,61.7-14.1,78.9-69.8,78.9h-103.1V222.8ZM1151.7,872.5c18.2,0,20.2-7.1,20.2-28.4V309.9c0-21.2-2-28.4-20.2-28.4h-28.4v590.9h28.4Z"/>
    </g>
  </g>
  <g>
    <g>
      <rect class="st4" x="1408.4" y="466.5" width="636.7" height="45"/>
      <rect class="st4" x="1408.4" y="554.5" width="636.7" height="45"/>
      <rect class="st4" x="1408.4" y="642.5" width="636.7" height="45"/>
    </g>
    <g>
      <rect class="st4" x="-122" y="466.5" width="636.7" height="45"/>
      <rect class="st4" x="-122" y="554.5" width="636.7" height="45"/>
      <rect class="st4" x="-122" y="642.5" width="636.7" height="45"/>
    </g>
  </g>
</svg>